<svg xmlns="http://www.w3.org/2000/svg" xmlns:xlink="http://www.w3.org/1999/xlink" width="504" height="100pt" viewBox="0 0 378 100"><g data-name="Layer 1"><symbol id="a"><path d="M0 .688h.595V.523H.221V.428h.32V.27h-.32V.165h.381V0H0v.688z"/></symbol><symbol id="b"><path d="M0 .688h.221V.176h.353V0H0v.688z"/></symbol><symbol id="c"><path d="M.298.688c.24 0 .361-.115.361-.344C.659.114.539 0 .298 0H0v.688h.298M.221.165h.073c.093 0 .139.05.139.149v.06c0 .1-.046.149-.139.149H.221V.165z"/></symbol><symbol id="d"><path d="M.447.512V0H.226v.512H0v.176h.672V.512H.447z"/></symbol><use xlink:href="#a" transform="matrix(57.616 0 0 -57.616 189.969 61.86)" fill="#fbb723"/><use xlink:href="#b" transform="matrix(57.616 0 0 -57.616 227.361 61.86)" fill="#fbb723"/><use xlink:href="#c" transform="matrix(57.616 0 0 -57.616 261.585 61.86)" fill="#fbb723"/><use xlink:href="#d" transform="matrix(57.616 0 0 -57.616 299.266 61.86)" fill="#fbb723"/><symbol id="e"><path d="M.685.289C.685.195.655.123.596.074A.385.385 0 0 0 .343 0a.39.39 0 0 0-.254.074C.029.124 0 .195 0 .289V.7h.221V.292c0-.039.01-.07.031-.093.02-.023.05-.034.09-.034.04 0 .07.012.09.035a.131.131 0 0 1 .032.092V.7h.221V.289z"/></symbol><symbol id="f"><path d="M.364.54C.425.54.471.523.502.489.532.455.548.406.548.342V0H.349v.318c0 .023-.006.04-.018.054C.32.386.303.393.282.393a.08.08 0 0 1-.06-.024A.082.082 0 0 1 .199.31V0H0v.528h.163l.013-.08A.24.24 0 0 0 .364.54z"/></symbol><symbol id="g"><path d="M0 .59v.135h.199V.59H0M0 0v.528h.199V0H0z"/></symbol><symbol id="h"><path d="M.385.54V.405H.273V.204C.273.18.277.162.285.151.293.141.308.135.329.135h.056V.018a.244.244 0 0 0-.264.014C.09.053.074.09.074.141v.264H0V.54h.082L.125.7h.148V.54h.112z"/></symbol><symbol id="i"><path d="M.297.552c.097 0 .17-.023.221-.068C.569.439.595.369.595.276V.242H.199c0-.038.008-.067.025-.086C.241.136.268.127.305.127c.033 0 .058.007.073.021a.07.07 0 0 1 .024.056h.193a.176.176 0 0 0-.073-.15A.355.355 0 0 0 .309 0a.345.345 0 0 0-.228.068C.027.114 0 .183 0 .276c0 .09.026.16.079.206.053.047.125.07.218.07M.305.425C.242.425.207.395.2.336h.194A.088.088 0 0 1 .37.401a.086.086 0 0 1-.065.024z"/></symbol><symbol id="j"><path d="M.408.012.391.087A.19.19 0 0 0 .223 0a.202.202 0 0 0-.165.07C.019.117 0 .186 0 .277c0 .09.02.159.058.205.039.047.094.07.165.07.06 0 .11-.02.148-.061v.246H.57V.012H.408M.285.405C.228.405.199.371.199.302V.249c0-.068.029-.102.086-.102.03 0 .051.01.066.031.015.02.022.048.022.081v.033c0 .033-.007.06-.022.081C.336.394.314.405.285.405z"/></symbol><use xlink:href="#e" transform="matrix(54.5991 0 0 -54.5991 30.637 62.462)" fill="#FFFFFF"/><use xlink:href="#f" transform="matrix(54.5991 0 0 -54.5991 69.84 61.807)" fill="#FFFFFF"/><use xlink:href="#g" transform="matrix(54.5991 0 0 -54.5991 101.124 61.807)" fill="#FFFFFF"/><use xlink:href="#h" transform="matrix(54.5991 0 0 -54.5991 111.608 62.462)" fill="#FFFFFF"/><use xlink:href="#i" transform="matrix(54.5991 0 0 -54.5991 130.826 62.462)" fill="#FFFFFF"/><use xlink:href="#j" transform="matrix(54.5991 0 0 -54.5991 161.73 62.462)" fill="#FFFFFF"/><symbol id="k"><path d="M.229 0a.208.208 0 0 0-.166.074A.315.315 0 0 0 0 .285c0 .091.021.162.063.211C.106.546.161.57.23.57A.208.208 0 0 0 .394.496a.314.314 0 0 0 .064-.21.314.314 0 0 0-.064-.212A.208.208 0 0 0 .229 0m0 .054c.048 0 .086.02.114.063a.303.303 0 0 1 .041.168c0 .07-.014.126-.041.168a.129.129 0 0 1-.114.064.13.13 0 0 1-.115-.064.303.303 0 0 1-.042-.168c0-.07.014-.125.042-.168A.13.13 0 0 1 .229.054z"/></symbol><symbol id="l"><path d="M.064 0H0v.538h.07L.314.156.338.113.336.155v.383h.065V0H.333L.086.384.063.427.064.384V0z"/></symbol><symbol id="m"><path d="M0 0v.538h.07V.06h.283V0H0z"/></symbol><symbol id="n"><path d="M.07 0H0v.538h.07V0z"/></symbol><symbol id="o"><path d="M0 0v.538h.304V.48H.07v-.17h.204V.255H.07V.06h.253V0H0z"/></symbol><symbol id="p"><path d="M0 0z"/></symbol><symbol id="q"><path d="M.183 0v.484H0v.054h.433V.484h-.18V0h-.07z"/></symbol><symbol id="r"><path d="M.07 0H0v.538h.167A.19.19 0 0 0 .259.521.126.126 0 0 0 .308.469.156.156 0 0 0 .314.336.177.177 0 0 0 .278.284.185.185 0 0 0 .211.242.124.124 0 0 0 .237.224.469.469 0 0 0 .28.16L.366 0h-.08L.21.142a.326.326 0 0 1-.07.09h-.07V0m0 .285h.068c.028 0 .05.005.065.013A.093.093 0 0 1 .24.337a.119.119 0 0 1 .013.055.095.095 0 0 1-.01.045.087.087 0 0 1-.031.033C.199.48.176.484.144.484H.07V.285z"/></symbol><symbol id="s"><path d="M.065 0H0l.22.538h.071L.495 0H.419L.363.148H.126L.065 0m.082.202h.195l-.094.25-.101-.25z"/></symbol><symbol id="t"><path d="M.403.04A.38.38 0 0 0 .24 0a.242.242 0 0 0-.13.032.227.227 0 0 0-.08.092.35.35 0 0 0-.03.155c0 .07.01.126.028.165A.216.216 0 0 0 .23.57.237.237 0 0 0 .317.555.135.135 0 0 0 .38.508a.1.1 0 0 0 .023-.06V.442H.34v.004a.05.05 0 0 1-.015.035.096.096 0 0 1-.037.025.144.144 0 0 1-.054.01.136.136 0 0 1-.12-.062.303.303 0 0 1-.04-.17c0-.071.013-.128.042-.17A.136.136 0 0 1 .234.055c.03 0 .065.007.105.021V.23H.218v.053h.185V.041z"/></symbol><symbol id="u"><path d="M.339.132h.064V.128A.118.118 0 0 0 .381.063a.127.127 0 0 0-.06-.047A.23.23 0 0 0 .234 0a.218.218 0 0 0-.168.071C.022.12 0 .191 0 .285 0 .38.022.451.065.5c.043.047.1.071.168.071A.23.23 0 0 0 .322.555a.125.125 0 0 0 .06-.05.116.116 0 0 0 .021-.063V.438H.34v.004a.065.065 0 0 1-.013.037.074.074 0 0 1-.035.028.147.147 0 0 1-.055.01A.135.135 0 0 1 .113.45a.309.309 0 0 1-.04-.166c0-.068.013-.124.04-.167A.136.136 0 0 1 .235.054C.273.054.3.06.315.077a.071.071 0 0 1 .024.051v.004z"/></symbol><symbol id="v"><path d="M0 .554h.07V.208c0-.05.005-.084.014-.101a.096.096 0 0 1 .047-.04.171.171 0 0 1 .135 0C.286.077.3.091.31.11c.009.02.014.06.014.123v.321h.064v-.34A.285.285 0 0 0 .365.084.156.156 0 0 0 .303.022.214.214 0 0 0 .2 0a.304.304 0 0 0-.105.018.137.137 0 0 0-.072.054A.251.251 0 0 0 0 .2v.355z"/></symbol><symbol id="w"><path d="M0 .137h.07V.134C.07.104.08.083.102.07A.173.173 0 0 1 .186.054c.03 0 .056.009.076.027.021.017.031.04.031.07a.072.072 0 0 1-.026.058.32.32 0 0 1-.081.044L.158.265A.35.35 0 0 0 .072.31.163.163 0 0 0 .03.362a.143.143 0 0 0-.014.063C.016.466.03.5.06.528.09.556.133.57.194.57.251.57.29.56.313.54A.096.096 0 0 0 .347.465V.462h-.07v.004a.04.04 0 0 1-.01.026.062.062 0 0 1-.032.019.172.172 0 0 1-.047.006C.154.517.128.508.112.49A.084.084 0 0 1 .087.43.08.08 0 0 1 .1.392.1.1 0 0 1 .131.356a.622.622 0 0 1 .07-.034L.234.31A.245.245 0 0 0 .339.237.14.14 0 0 0 .366.155.158.158 0 0 0 .344.077.142.142 0 0 0 .284.02a.224.224 0 0 0-.1-.02.298.298 0 0 0-.101.015.116.116 0 0 0-.062.047A.131.131 0 0 0 0 .134v.003z"/></symbol><use xlink:href="#k" transform="matrix(17.1668 0 0 -17.1668 31.35 79.388)" fill="#FFFFFF"/><use xlink:href="#l" transform="matrix(17.1668 0 0 -17.1668 47.77 79.111)" fill="#FFFFFF"/><use xlink:href="#m" transform="matrix(17.1668 0 0 -17.1668 63.546 79.111)" fill="#FFFFFF"/><use xlink:href="#n" transform="matrix(17.1668 0 0 -17.1668 77.795 79.111)" fill="#FFFFFF"/><use xlink:href="#l" transform="matrix(17.1668 0 0 -17.1668 87.889 79.111)" fill="#FFFFFF"/><use xlink:href="#o" transform="matrix(17.1668 0 0 -17.1668 103.665 79.111)" fill="#FFFFFF"/><use xlink:href="#p" transform="matrix(17.1668 0 0 -17.1668 116.956 79.111)" fill="#FFFFFF"/><use xlink:href="#q" transform="matrix(17.1668 0 0 -17.1668 129.998 79.111)" fill="#FFFFFF"/><use xlink:href="#r" transform="matrix(17.1668 0 0 -17.1668 145.638 79.111)" fill="#FFFFFF"/><use xlink:href="#s" transform="matrix(17.1668 0 0 -17.1668 159.474 79.111)" fill="#FFFFFF"/><use xlink:href="#n" transform="matrix(17.1668 0 0 -17.1668 176.16 79.111)" fill="#FFFFFF"/><use xlink:href="#l" transform="matrix(17.1668 0 0 -17.1668 186.255 79.111)" fill="#FFFFFF"/><use xlink:href="#n" transform="matrix(17.1668 0 0 -17.1668 202.031 79.111)" fill="#FFFFFF"/><use xlink:href="#l" transform="matrix(17.1668 0 0 -17.1668 212.125 79.111)" fill="#FFFFFF"/><use xlink:href="#t" transform="matrix(17.1668 0 0 -17.1668 227.583 79.388)" fill="#FFFFFF"/><use xlink:href="#p" transform="matrix(17.1668 0 0 -17.1668 242.394 79.111)" fill="#FFFFFF"/><use xlink:href="#u" transform="matrix(17.1668 0 0 -17.1668 255.805 79.388)" fill="#FFFFFF"/><use xlink:href="#k" transform="matrix(17.1668 0 0 -17.1668 270.877 79.388)" fill="#FFFFFF"/><use xlink:href="#v" transform="matrix(17.1668 0 0 -17.1668 287.164 79.388)" fill="#FFFFFF"/><use xlink:href="#r" transform="matrix(17.1668 0 0 -17.1668 302.56 79.111)" fill="#FFFFFF"/><use xlink:href="#w" transform="matrix(17.1668 0 0 -17.1668 316.857 79.388)" fill="#FFFFFF"/><use xlink:href="#o" transform="matrix(17.1668 0 0 -17.1668 331.606 79.111)" fill="#FFFFFF"/><symbol id="x"><path d="M.605 0v.248a1.507 1.507 0 0 0 .016.218H.617L.49 0H.317L.189.465H.185A5.792 5.792 0 0 1 .199.342C.202.31.203.279.203.248V0H0v.688h.312L.416.291H.42l.103.397h.301V0H.605z"/></symbol><use xlink:href="#d" transform="matrix(4.9181 0 0 -4.9181 330.273 21.46)" fill="#FFFFFF"/><use xlink:href="#x" transform="matrix(4.9181 0 0 -4.9181 333.927 21.46)" fill="#FFFFFF"/></g></svg>
