<svg width="264" height="53" viewBox="0 0 264 53" fill="none" xmlns="http://www.w3.org/2000/svg">
<path d="M136.695 3.62329H166.127V11.7851H147.627V16.4843H163.456V24.2998H147.627V29.4937H166.474V37.6555H136.695V3.62329Z" fill="#FBB723"/>
<path d="M168.798 3.62329H179.73V28.9496H197.191V37.6555H168.798V3.62329Z" fill="#FBB723"/>
<path d="M212.921 3.62329C224.793 3.62329 230.778 9.31182 230.778 20.6394C230.778 32.0165 224.842 37.6555 212.921 37.6555H198.18V3.62329H212.921ZM209.112 29.4937H212.723C217.324 29.4937 219.599 27.0204 219.599 22.1234V19.1554C219.599 14.2089 217.324 11.7851 212.723 11.7851H209.112V29.4937Z" fill="#FBB723"/>
<path d="M252.642 12.3292V37.6555H241.71V12.3292H230.531V3.62329H263.772V12.3292H252.642Z" fill="#FBB723"/>
<path d="M32.0127 24.6254C32.0127 29.0317 30.6064 32.4067 27.8408 34.7036C24.4189 37.2193 20.2195 38.4476 15.9813 38.1724C11.7296 38.4387 7.51838 37.2118 4.07498 34.7036C1.26246 32.3598 -0.0969238 29.0317 -0.0969238 24.6254V5.35964H10.2625V24.4848C10.2625 26.3129 10.7313 27.766 11.7157 28.8442C12.6532 29.9223 14.0594 30.4379 15.9344 30.4379C17.8095 30.4379 19.2157 29.8754 20.1532 28.7973C21.1889 27.606 21.7261 26.0617 21.6532 24.4848V5.35964H32.0127V24.6254Z" fill="white"/>
<path d="M50.6229 12.2973C53.4823 12.2973 55.6386 13.0942 57.0917 14.688C58.498 16.2817 59.248 18.5786 59.248 21.5786V37.61H49.9198V22.7036C49.9198 21.6255 49.6385 20.8286 49.076 20.1724C48.5604 19.5161 47.7635 19.188 46.7791 19.188C46.2579 19.1696 45.7385 19.2602 45.2542 19.4539C44.77 19.6476 44.3314 19.9402 43.9666 20.313C43.6126 20.6795 43.3349 21.1127 43.1498 21.5875C42.9647 22.0623 42.8759 22.5692 42.8885 23.0786V37.61H33.5603V12.8598H41.201L41.8104 16.6098C42.8582 15.2721 44.1955 14.1892 45.7218 13.4423C47.248 12.6954 48.9237 12.3039 50.6229 12.2973Z" fill="white"/>
<path d="M60.4187 9.95354V3.62537H69.7469V9.95354H60.4187ZM60.4187 37.61V12.8598H69.7469V37.61H60.4187Z" fill="white"/>
<path d="M87.4667 12.8597V19.1879H82.2166V28.6098C82.2166 29.7348 82.4041 30.5786 82.7791 31.0942C83.1541 31.5629 83.8573 31.8442 84.8417 31.8442H87.4667V37.3286C85.5589 38.4197 83.3772 38.9381 81.1826 38.8217C78.9879 38.7053 76.8732 37.9591 75.0916 36.6724C73.6385 35.688 72.8885 33.9536 72.8885 31.5629V19.1879H69.4197V12.8597H73.2635L75.2791 5.35964H82.2166V12.8597H87.4667Z" fill="white"/>
<path d="M99.8409 12.297C104.388 12.297 107.81 13.3752 110.2 15.4846C112.591 17.5939 113.81 20.8752 113.81 25.2346V26.8284H95.2471C95.2471 28.6096 95.6221 29.969 96.419 30.8597C97.2159 31.7972 98.4815 32.219 100.216 32.219C101.763 32.219 102.935 31.8909 103.638 31.2347C104.011 30.9102 104.306 30.5055 104.501 30.051C104.696 29.5964 104.785 29.1037 104.763 28.6096H113.81C113.865 29.9732 113.582 31.3293 112.985 32.5565C112.388 33.7836 111.495 34.8434 110.388 35.6409C107.411 37.5194 103.916 38.4056 100.403 38.1722C96.5756 38.4106 92.7877 37.2809 89.7158 34.9847C87.1846 32.8284 85.9189 29.594 85.9189 25.2346C85.9189 21.0158 87.1377 17.7346 89.6221 15.5783C92.1065 13.3752 95.4815 12.297 99.8409 12.297ZM100.216 18.2502C97.2628 18.2502 95.6221 19.6565 95.294 22.4221H104.388C104.416 21.8645 104.331 21.307 104.138 20.7833C103.944 20.2595 103.647 19.7805 103.263 19.3752C102.861 18.9866 102.382 18.686 101.858 18.4923C101.333 18.2986 100.774 18.2162 100.216 18.2502Z" fill="white"/>
<path d="M131.576 37.6098L130.779 34.0942C129.937 35.4026 128.767 36.4676 127.386 37.1831C126.004 37.8986 124.459 38.2397 122.904 38.1723C121.45 38.2574 119.995 38.0056 118.653 37.4365C117.312 36.8673 116.12 35.9963 115.17 34.891C113.342 32.6879 112.451 29.4535 112.451 25.1878C112.451 20.9691 113.389 17.7347 115.17 15.5784C116.998 13.3753 119.576 12.2971 122.904 12.2971C125.717 12.2971 128.061 13.2346 129.842 15.1565V3.62519H139.17V37.6098H131.576ZM125.811 19.1878C123.139 19.1878 121.779 20.7816 121.779 24.016V26.5004C121.779 29.6879 123.139 31.2816 125.811 31.2816C127.217 31.2816 128.201 30.8129 128.904 29.8285C129.608 28.891 129.936 27.5785 129.936 26.0316V24.4847C129.936 22.9378 129.608 21.6722 128.904 20.6878C128.201 19.7034 127.17 19.1878 125.811 19.1878Z" fill="white"/>
<path d="M3.89036 52.7039C3.4266 52.7191 2.96545 52.6289 2.54165 52.44C2.11785 52.251 1.74247 51.9684 1.44379 51.6133C0.770247 50.7221 0.440584 49.618 0.51528 48.5035C0.51528 47.1623 0.824784 46.1159 1.44379 45.3937C2.07754 44.6568 2.88815 44.3031 3.90509 44.3031C4.36393 44.2923 4.81932 44.3848 5.23766 44.5735C5.65601 44.7623 6.02663 45.0426 6.32218 45.3937C6.99876 46.2783 7.33366 47.3772 7.26543 48.4888C7.3409 49.6103 7.00562 50.7209 6.32218 51.6133C6.02506 51.9664 5.65206 52.2479 5.23099 52.4367C4.80992 52.6255 4.35165 52.7169 3.89036 52.7039ZM3.89036 51.908C4.5978 51.908 5.15785 51.6133 5.57053 50.9795C6.0082 50.2304 6.21817 49.37 6.1748 48.5035C6.1748 47.4718 5.96846 46.6465 5.57053 46.0275C5.3999 45.7348 5.15418 45.4931 4.85878 45.3272C4.56339 45.1614 4.22905 45.0775 3.89036 45.0842C3.54947 45.0764 3.21267 45.1597 2.91472 45.3255C2.61677 45.4913 2.36847 45.7336 2.19545 46.0275C1.75263 46.775 1.53751 47.6355 1.57644 48.5035C1.57644 49.5352 1.78278 50.3458 2.19545 50.9795C2.37033 51.2706 2.61944 51.51 2.91726 51.6731C3.21508 51.8363 3.5509 51.9174 3.89036 51.908Z" fill="white"/>
<path d="M15.5556 52.4661H14.6123V44.5368H15.644L19.2401 50.1669L19.5939 50.8006L19.5644 50.1816V44.5368H20.5224V52.4661H19.5202L15.8798 46.8065L15.5408 46.1728L15.5556 46.8065V52.4661Z" fill="white"/>
<path d="M28.1567 52.4661V44.5368H29.1884V51.5818H33.3594V52.4661H28.1567Z" fill="white"/>
<path d="M41.4216 52.4661H40.3899V44.5368H41.4216V52.4661Z" fill="white"/>
<path d="M49.9992 52.4661H49.0559V44.5368H50.0876L53.6837 50.1669L54.0375 50.8006L54.008 50.1816V44.5368H54.966V52.4661H53.9638L50.3234 46.8065L49.9844 46.1728L49.9992 46.8065V52.4661Z" fill="white"/>
<path d="M62.6003 52.4661V44.5368H67.0808V45.3917H63.632V47.8972H66.6386V48.7078H63.632V51.5818H67.3608V52.4661H62.6003Z" fill="white"/>
<path d="M87.9054 52.4661V45.3327H85.2083V44.5368H91.5899V45.3327H88.937V52.4661H87.9054Z" fill="white"/>
<path d="M99.6674 52.4661H98.6357V44.5368H101.097C101.563 44.506 102.029 44.5922 102.453 44.7874C102.763 44.9678 103.013 45.234 103.175 45.5538C103.334 45.8538 103.424 46.1851 103.439 46.524C103.454 46.8629 103.394 47.201 103.264 47.514C103.134 47.7992 102.954 48.0588 102.733 48.2804C102.452 48.5555 102.115 48.7666 101.746 48.8994C101.884 48.9711 102.013 49.0603 102.129 49.1647C102.366 49.4612 102.577 49.7767 102.762 50.1079L104.03 52.4661H102.851L101.731 50.3732C101.467 49.8739 101.118 49.4249 100.699 49.0468H99.6674V52.4661ZM99.6674 48.2656H100.67C101.082 48.2656 101.407 48.1919 101.628 48.074C101.862 47.9403 102.052 47.7404 102.173 47.4992C102.301 47.2484 102.367 46.9703 102.365 46.6886C102.371 46.4588 102.32 46.231 102.217 46.0254C102.11 45.8258 101.953 45.658 101.76 45.5391C101.569 45.3917 101.23 45.3327 100.758 45.3327H99.6674V48.2656Z" fill="white"/>
<path d="M111.472 52.4661H110.514L113.757 44.5368H114.803L117.81 52.4661H116.69L115.864 50.2848H112.371L111.472 52.4661ZM112.681 49.4889H115.555L114.17 45.8043L112.681 49.4889Z" fill="white"/>
<path d="M125.872 52.4661H124.84V44.5368H125.872V52.4661Z" fill="white"/>
<path d="M134.45 52.4661H133.507V44.5368H134.539L138.135 50.1669L138.488 50.8006L138.459 50.1816V44.5368H139.417V52.4661H138.415L134.774 46.8065L134.435 46.1728L134.45 46.8065V52.4661Z" fill="white"/>
<path d="M148.083 52.4661H147.051V44.5368H148.083V52.4661Z" fill="white"/>
<path d="M156.661 52.4661H155.717V44.5368H156.749L160.345 50.1669L160.699 50.8006L160.669 50.1816V44.5368H161.627V52.4661H160.625L156.985 46.8065L156.646 46.1728L156.661 46.8065V52.4661Z" fill="white"/>
<path d="M174.931 52.1117C174.185 52.4849 173.364 52.6863 172.529 52.7013C171.859 52.7274 171.195 52.5639 170.613 52.2297C170.104 51.8937 169.696 51.4248 169.434 50.8737C169.115 50.1559 168.963 49.3745 168.992 48.5893C168.992 47.5576 169.139 46.7323 169.405 46.1575C169.664 45.5903 170.085 45.1119 170.614 44.7818C171.144 44.4516 171.758 44.2842 172.382 44.3004C172.819 44.2932 173.254 44.3682 173.664 44.5215C174.035 44.6552 174.359 44.8963 174.592 45.2142C174.8 45.4637 174.919 45.7745 174.931 46.0985V46.1869H174.003V46.128C174 45.9336 173.921 45.7482 173.782 45.6121C173.632 45.4482 173.445 45.3219 173.237 45.2437C172.983 45.144 172.713 45.0939 172.441 45.0963C172.092 45.0814 171.745 45.1578 171.435 45.3181C171.125 45.4784 170.862 45.7169 170.672 46.0101C170.234 46.7693 170.029 47.6407 170.083 48.5156C170.083 49.562 170.274 50.4021 170.702 51.0211C170.894 51.3017 171.154 51.5288 171.459 51.6809C171.763 51.833 172.101 51.9052 172.441 51.8907C172.883 51.8907 173.399 51.7875 173.988 51.5812V49.3115H172.205V48.5303H174.931V52.097V52.1117Z" fill="white"/>
<path d="M198.214 50.7569H199.158V50.8159C199.147 51.1603 199.034 51.4937 198.833 51.7738C198.616 52.0898 198.308 52.3316 197.949 52.4665C197.541 52.6274 197.105 52.7075 196.667 52.7024C196.203 52.7171 195.742 52.6312 195.314 52.4505C194.887 52.2699 194.503 51.9988 194.191 51.6559C193.542 50.9338 193.218 49.8873 193.218 48.5019C193.218 47.1018 193.542 46.0554 194.176 45.3332C194.81 44.6405 195.65 44.2868 196.652 44.2868C197.101 44.2778 197.546 44.358 197.964 44.5226C198.33 44.6675 198.64 44.9257 198.848 45.2595C199.04 45.5322 199.147 45.855 199.158 46.188V46.247H198.229V46.188C198.223 45.9909 198.156 45.8004 198.037 45.6427C197.912 45.4551 197.732 45.311 197.522 45.23C197.263 45.1295 196.988 45.0795 196.711 45.0826C196.345 45.0629 195.981 45.1447 195.658 45.319C195.336 45.4932 195.068 45.7531 194.883 46.0701C194.461 46.8141 194.257 47.662 194.294 48.5167C194.294 49.5189 194.486 50.3442 194.883 50.978C195.074 51.2783 195.341 51.5226 195.657 51.6858C195.973 51.849 196.326 51.9251 196.682 51.9065C197.242 51.9065 197.64 51.8181 197.861 51.5675C197.968 51.473 198.054 51.3576 198.115 51.2283C198.176 51.099 198.21 50.9587 198.214 50.8159V50.7569Z" fill="white"/>
<path d="M209.533 52.7039C209.069 52.7191 208.608 52.6289 208.184 52.44C207.76 52.251 207.385 51.9684 207.086 51.6133C206.413 50.7221 206.083 49.618 206.158 48.5035C206.158 47.1623 206.467 46.1159 207.086 45.3937C207.72 44.6568 208.531 44.3031 209.548 44.3031C210.007 44.2923 210.462 44.3848 210.88 44.5735C211.299 44.7623 211.669 45.0426 211.965 45.3937C212.641 46.2783 212.976 47.3772 212.908 48.4888C212.983 49.6103 212.648 50.7209 211.965 51.6133C211.668 51.9664 211.295 52.2479 210.874 52.4367C210.453 52.6255 209.994 52.7169 209.533 52.7039ZM209.533 51.908C210.24 51.908 210.8 51.6133 211.213 50.9795C211.651 50.2304 211.861 49.37 211.817 48.5035C211.817 47.4718 211.611 46.6465 211.213 46.0275C211.042 45.7348 210.797 45.4931 210.501 45.3272C210.206 45.1614 209.872 45.0775 209.533 45.0842C209.192 45.0764 208.855 45.1597 208.557 45.3255C208.259 45.4913 208.011 45.7336 207.838 46.0275C207.395 46.775 207.18 47.6355 207.219 48.5035C207.219 49.5352 207.425 50.3458 207.838 50.9795C208.013 51.2706 208.262 51.51 208.56 51.6731C208.858 51.8363 209.193 51.9174 209.533 51.908Z" fill="white"/>
<path d="M220.141 44.5388H221.172V49.6383C221.172 50.3752 221.246 50.8763 221.379 51.1269C221.539 51.3943 221.782 51.6015 222.072 51.7164C222.386 51.8514 222.724 51.9211 223.066 51.9211C223.408 51.9211 223.747 51.8514 224.061 51.7164C224.356 51.569 224.562 51.3627 224.71 51.0827C224.842 50.7879 224.916 50.1984 224.916 49.2698V44.5388H225.859V49.5499C225.898 50.2063 225.782 50.8625 225.52 51.4659C225.309 51.8515 224.992 52.1687 224.607 52.3796C224.135 52.6125 223.614 52.7239 223.088 52.7039C222.561 52.7072 222.037 52.6174 221.541 52.4386C221.108 52.3004 220.734 52.0199 220.48 51.6427C220.203 51.0546 220.086 50.4039 220.141 49.7562V44.5388Z" fill="white"/>
<path d="M234.391 52.4661H233.359V44.5368H235.82C236.286 44.506 236.752 44.5922 237.176 44.7874C237.486 44.9678 237.737 45.234 237.898 45.5538C238.057 45.8538 238.147 46.1851 238.162 46.524C238.177 46.8629 238.118 47.201 237.987 47.514C237.857 47.7992 237.678 48.0588 237.456 48.2804C237.175 48.5555 236.839 48.7666 236.469 48.8994C236.607 48.9711 236.736 49.0603 236.852 49.1647C237.089 49.4612 237.301 49.7767 237.486 50.1079L238.753 52.4661H237.574L236.454 50.3732C236.191 49.8739 235.841 49.4249 235.422 49.0468H234.391V52.4661ZM234.391 48.2656H235.393C235.805 48.2656 236.13 48.1919 236.351 48.074C236.585 47.9403 236.775 47.7404 236.896 47.4992C237.024 47.2484 237.09 46.9703 237.088 46.6886C237.094 46.4588 237.043 46.231 236.94 46.0254C236.834 45.8258 236.676 45.658 236.483 45.5391C236.292 45.3917 235.953 45.3327 235.481 45.3327H234.391V48.2656Z" fill="white"/>
<path d="M245.633 50.6831H246.665V50.7273C246.665 51.1695 246.812 51.479 247.137 51.6706C247.523 51.8515 247.949 51.9326 248.375 51.9064C248.817 51.9064 249.2 51.7737 249.495 51.5085C249.804 51.2579 249.952 50.9189 249.952 50.4768C249.957 50.3145 249.926 50.153 249.86 50.0048C249.793 49.8566 249.694 49.7256 249.568 49.622C249.204 49.3493 248.802 49.1309 248.375 48.9735L247.962 48.7966C247.511 48.6355 247.084 48.4123 246.695 48.1334C246.437 47.9234 246.227 47.6625 246.075 47.367C245.937 47.0773 245.866 46.7597 245.869 46.4385C245.869 45.8342 246.075 45.3331 246.518 44.9204C246.96 44.5078 247.594 44.3014 248.493 44.3014C249.333 44.3014 249.907 44.4488 250.246 44.7436C250.407 44.8791 250.535 45.0486 250.622 45.2398C250.708 45.431 250.751 45.6391 250.748 45.8489V45.8932H249.716V45.8342C249.714 45.6929 249.662 45.557 249.568 45.451C249.444 45.3116 249.279 45.2138 249.097 45.171C248.871 45.1097 248.638 45.0799 248.404 45.0825C247.903 45.0825 247.52 45.2152 247.284 45.4805C247.167 45.596 247.074 45.7337 247.011 45.8855C246.948 46.0374 246.915 46.2003 246.916 46.3648C246.931 46.5647 246.997 46.7575 247.107 46.9248C247.215 47.1358 247.371 47.3178 247.564 47.4554C247.897 47.6438 248.242 47.8112 248.596 47.9565L249.082 48.1334C249.684 48.3487 250.218 48.72 250.63 49.2093C250.886 49.5601 251.026 49.9831 251.028 50.4178C251.021 50.8227 250.91 51.2189 250.703 51.5674C250.499 51.929 250.191 52.2215 249.819 52.4075C249.357 52.6178 248.853 52.7186 248.345 52.7023C247.84 52.7148 247.336 52.64 246.857 52.4812C246.481 52.3624 246.159 52.1177 245.943 51.7885C245.738 51.4725 245.631 51.1037 245.633 50.7273V50.6831Z" fill="white"/>
<path d="M258.296 52.4661V44.5368H262.776V45.3917H259.328V47.8972H262.334V48.7078H259.328V51.5818H263.056V52.4661H258.296Z" fill="white"/>
<path d="M259.039 0.80885V2.9707H258.106V0.80885H257.152V0.0657129H259.989V0.80885H259.039Z" fill="white"/>
<path d="M262.843 2.9707V1.92356C262.843 1.6155 262.866 1.30786 262.911 1.00308H262.894L262.358 2.9707H261.627L261.087 1.0073H261.07C261.088 1.18062 261.107 1.35375 261.129 1.52665C261.141 1.66177 261.146 1.79266 261.146 1.92356V2.9707H260.289V0.0657129H261.606L262.045 1.74199H262.062L262.497 0.0657129H263.768V2.9707H262.843Z" fill="white"/>
</svg>
