<svg width="264" height="53" viewBox="0 0 264 53" fill="none" xmlns="http://www.w3.org/2000/svg">
<g clip-path="url(#clip0_4_5232)">
<path d="M136.695 3.62305H166.127V11.7848H147.627V16.4841H163.456V24.2996H147.627V29.4935H166.474V37.6553H136.695V3.62305Z" fill="#FBB723"/>
<path d="M168.798 3.62305H179.73V28.9494H197.191V37.6553H168.798V3.62305Z" fill="#FBB723"/>
<path d="M212.921 3.62305C224.793 3.62305 230.778 9.31157 230.778 20.6392C230.778 32.0162 224.842 37.6553 212.921 37.6553H198.18V3.62305H212.921ZM209.112 29.4935H212.723C217.324 29.4935 219.599 27.0202 219.599 22.1231V19.1552C219.599 14.2087 217.324 11.7848 212.723 11.7848H209.112V29.4935Z" fill="#FBB723"/>
<path d="M252.642 12.329V37.6553H241.71V12.329H230.531V3.62305H263.772V12.329H252.642Z" fill="#FBB723"/>
<path d="M32.0127 24.625C32.0127 29.0313 30.6064 32.4063 27.8408 34.7032C24.4189 37.2189 20.2195 38.4472 15.9813 38.172C11.7296 38.4383 7.51838 37.2114 4.07498 34.7032C1.26246 32.3595 -0.0969238 29.0313 -0.0969238 24.625V5.35928H10.2625V24.4844C10.2625 26.3125 10.7313 27.7657 11.7157 28.8438C12.6532 29.9219 14.0594 30.4376 15.9344 30.4376C17.8095 30.4376 19.2157 29.8751 20.1532 28.7969C21.1889 27.6057 21.7261 26.0613 21.6532 24.4844V5.35928H32.0127V24.625Z" fill="#2C292A"/>
<path d="M50.6229 12.2972C53.4823 12.2972 55.6386 13.0941 57.0917 14.6878C58.498 16.2816 59.248 18.5785 59.248 21.5785V37.6099H49.9198V22.7035C49.9198 21.6254 49.6385 20.8285 49.076 20.1722C48.5604 19.516 47.7635 19.1879 46.7791 19.1879C46.2579 19.1695 45.7385 19.26 45.2542 19.4537C44.77 19.6475 44.3314 19.9401 43.9666 20.3129C43.6126 20.6794 43.3349 21.1126 43.1498 21.5874C42.9647 22.0622 42.8759 22.5691 42.8885 23.0785V37.6099H33.5603V12.8597H41.201L41.8104 16.6097C42.8582 15.272 44.1955 14.1891 45.7218 13.4422C47.248 12.6953 48.9237 12.3038 50.6229 12.2972Z" fill="#2C292A"/>
<path d="M60.4187 9.95342V3.62525H69.7469V9.95342H60.4187ZM60.4187 37.6099V12.8597H69.7469V37.6099H60.4187Z" fill="#2C292A"/>
<path d="M87.4667 12.8598V19.188H82.2166V28.6099C82.2166 29.7349 82.4041 30.5787 82.7791 31.0943C83.1541 31.5631 83.8573 31.8443 84.8417 31.8443H87.4667V37.3287C85.5589 38.4198 83.3772 38.9382 81.1826 38.8218C78.9879 38.7055 76.8732 37.9592 75.0916 36.6725C73.6385 35.6881 72.8885 33.9537 72.8885 31.5631V19.188H69.4197V12.8598H73.2635L75.2791 5.35976H82.2166V12.8598H87.4667Z" fill="#2C292A"/>
<path d="M99.8409 12.2972C104.388 12.2972 107.81 13.3753 110.2 15.4847C112.591 17.5941 113.81 20.8753 113.81 25.2347V26.8285H95.2471C95.2471 28.6098 95.6221 29.9692 96.419 30.8598C97.2159 31.7973 98.4815 32.2192 100.216 32.2192C101.763 32.2192 102.935 31.891 103.638 31.2348C104.011 30.9103 104.306 30.5057 104.501 30.0511C104.696 29.5965 104.785 29.1038 104.763 28.6098H113.81C113.865 29.9734 113.582 31.3295 112.985 32.5566C112.388 33.7837 111.495 34.8435 110.388 35.6411C107.411 37.5195 103.916 38.4058 100.403 38.1723C96.5756 38.4107 92.7877 37.281 89.7158 34.9848C87.1846 32.8286 85.9189 29.5942 85.9189 25.2347C85.9189 21.016 87.1377 17.7347 89.6221 15.5784C92.1065 13.3753 95.4815 12.2972 99.8409 12.2972ZM100.216 18.2503C97.2628 18.2503 95.6221 19.6566 95.294 22.4222H104.388C104.416 21.8647 104.331 21.3071 104.138 20.7834C103.944 20.2597 103.647 19.7806 103.263 19.3753C102.861 18.9868 102.382 18.6861 101.858 18.4924C101.333 18.2987 100.774 18.2163 100.216 18.2503Z" fill="#2C292A"/>
<path d="M131.576 37.6098L130.779 34.0942C129.937 35.4026 128.767 36.4676 127.386 37.1831C126.004 37.8986 124.459 38.2397 122.904 38.1723C121.45 38.2574 119.995 38.0056 118.653 37.4365C117.312 36.8673 116.12 35.9963 115.17 34.891C113.342 32.6879 112.451 29.4535 112.451 25.1878C112.451 20.9691 113.389 17.7347 115.17 15.5784C116.998 13.3753 119.576 12.2971 122.904 12.2971C125.717 12.2971 128.061 13.2346 129.842 15.1565V3.62519H139.17V37.6098H131.576ZM125.811 19.1878C123.139 19.1878 121.779 20.7816 121.779 24.016V26.5004C121.779 29.6879 123.139 31.2816 125.811 31.2816C127.217 31.2816 128.201 30.8129 128.904 29.8285C129.608 28.891 129.936 27.5785 129.936 26.0316V24.4847C129.936 22.9378 129.608 21.6722 128.904 20.6878C128.201 19.7034 127.17 19.1878 125.811 19.1878Z" fill="#2C292A"/>
<path d="M3.89036 52.7039C3.4266 52.7191 2.96545 52.6289 2.54165 52.44C2.11785 52.251 1.74247 51.9684 1.44379 51.6133C0.770247 50.7221 0.440584 49.618 0.51528 48.5035C0.51528 47.1623 0.824784 46.1159 1.44379 45.3937C2.07754 44.6568 2.88815 44.3031 3.90509 44.3031C4.36393 44.2923 4.81932 44.3848 5.23766 44.5735C5.65601 44.7623 6.02663 45.0426 6.32218 45.3937C6.99876 46.2783 7.33366 47.3772 7.26543 48.4888C7.3409 49.6103 7.00562 50.7209 6.32218 51.6133C6.02506 51.9664 5.65206 52.2479 5.23099 52.4367C4.80992 52.6255 4.35165 52.7169 3.89036 52.7039ZM3.89036 51.908C4.5978 51.908 5.15785 51.6133 5.57053 50.9795C6.0082 50.2304 6.21817 49.37 6.1748 48.5035C6.1748 47.4718 5.96846 46.6465 5.57053 46.0275C5.3999 45.7348 5.15418 45.4931 4.85878 45.3272C4.56339 45.1614 4.22905 45.0775 3.89036 45.0842C3.54947 45.0764 3.21267 45.1597 2.91472 45.3255C2.61677 45.4913 2.36847 45.7336 2.19545 46.0275C1.75263 46.775 1.53751 47.6355 1.57644 48.5035C1.57644 49.5352 1.78278 50.3458 2.19545 50.9795C2.37033 51.2706 2.61944 51.51 2.91726 51.6731C3.21508 51.8363 3.5509 51.9174 3.89036 51.908Z" fill="#2C292A"/>
<path d="M15.5556 52.4658H14.6123V44.5366H15.644L19.2401 50.1666L19.5939 50.8004L19.5644 50.1814V44.5366H20.5224V52.4658H19.5202L15.8798 46.8063L15.5408 46.1726L15.5556 46.8063V52.4658Z" fill="#2C292A"/>
<path d="M28.1567 52.4658V44.5366H29.1884V51.5815H33.3594V52.4658H28.1567Z" fill="#2C292A"/>
<path d="M41.4216 52.4658H40.3899V44.5366H41.4216V52.4658Z" fill="#2C292A"/>
<path d="M49.9992 52.4658H49.0559V44.5366H50.0876L53.6837 50.1666L54.0375 50.8004L54.008 50.1814V44.5366H54.966V52.4658H53.9638L50.3234 46.8063L49.9844 46.1726L49.9992 46.8063V52.4658Z" fill="#2C292A"/>
<path d="M62.6003 52.4658V44.5366H67.0808V45.3914H63.632V47.8969H66.6386V48.7075H63.632V51.5815H67.3608V52.4658H62.6003Z" fill="#2C292A"/>
<path d="M87.9054 52.4658V45.3325H85.2083V44.5366H91.5899V45.3325H88.937V52.4658H87.9054Z" fill="#2C292A"/>
<path d="M99.6674 52.4658H98.6357V44.5366H101.097C101.563 44.5058 102.029 44.5919 102.453 44.7872C102.763 44.9676 103.013 45.2337 103.175 45.5535C103.334 45.8535 103.424 46.1848 103.439 46.5237C103.454 46.8626 103.394 47.2007 103.264 47.5137C103.134 47.799 102.954 48.0586 102.733 48.2801C102.452 48.5552 102.115 48.7664 101.746 48.8991C101.884 48.9709 102.013 49.06 102.129 49.1644C102.366 49.4609 102.577 49.7764 102.762 50.1077L104.03 52.4658H102.851L101.731 50.373C101.467 49.8737 101.118 49.4246 100.699 49.0465H99.6674V52.4658ZM99.6674 48.2654H100.67C101.082 48.2654 101.407 48.1917 101.628 48.0738C101.862 47.9401 102.052 47.7401 102.173 47.499C102.301 47.2481 102.367 46.9701 102.365 46.6884C102.371 46.4586 102.32 46.2308 102.217 46.0252C102.11 45.8256 101.953 45.6578 101.76 45.5388C101.569 45.3914 101.23 45.3325 100.758 45.3325H99.6674V48.2654Z" fill="#2C292A"/>
<path d="M111.472 52.4658H110.514L113.757 44.5366H114.803L117.81 52.4658H116.69L115.864 50.2845H112.371L111.472 52.4658ZM112.681 49.4887H115.555L114.17 45.8041L112.681 49.4887Z" fill="#2C292A"/>
<path d="M125.872 52.4658H124.84V44.5366H125.872V52.4658Z" fill="#2C292A"/>
<path d="M134.45 52.4658H133.507V44.5366H134.539L138.135 50.1666L138.488 50.8004L138.459 50.1814V44.5366H139.417V52.4658H138.415L134.774 46.8063L134.435 46.1726L134.45 46.8063V52.4658Z" fill="#2C292A"/>
<path d="M148.083 52.4658H147.051V44.5366H148.083V52.4658Z" fill="#2C292A"/>
<path d="M156.661 52.4658H155.717V44.5366H156.749L160.345 50.1666L160.699 50.8004L160.669 50.1814V44.5366H161.627V52.4658H160.625L156.985 46.8063L156.646 46.1726L156.661 46.8063V52.4658Z" fill="#2C292A"/>
<path d="M174.931 52.1119C174.185 52.485 173.364 52.6864 172.529 52.7014C171.859 52.7275 171.195 52.564 170.613 52.2298C170.104 51.8938 169.696 51.4249 169.434 50.8738C169.115 50.156 168.963 49.3746 168.992 48.5894C168.992 47.5577 169.139 46.7324 169.405 46.1576C169.664 45.5904 170.085 45.112 170.614 44.7819C171.144 44.4517 171.758 44.2844 172.382 44.3006C172.819 44.2933 173.254 44.3683 173.664 44.5216C174.035 44.6553 174.359 44.8964 174.592 45.2143C174.8 45.4638 174.919 45.7746 174.931 46.0986V46.1871H174.003V46.1281C174 45.9337 173.921 45.7483 173.782 45.6123C173.632 45.4483 173.445 45.3221 173.237 45.2438C172.983 45.1441 172.713 45.094 172.441 45.0964C172.092 45.0815 171.745 45.158 171.435 45.3182C171.125 45.4785 170.862 45.717 170.672 46.0102C170.234 46.7694 170.029 47.6408 170.083 48.5157C170.083 49.5621 170.274 50.4022 170.702 51.0212C170.894 51.3018 171.154 51.5289 171.459 51.681C171.763 51.8331 172.101 51.9053 172.441 51.8908C172.883 51.8908 173.399 51.7876 173.988 51.5813V49.3116H172.205V48.5305H174.931V52.0971V52.1119Z" fill="#2C292A"/>
<path d="M198.214 50.757H199.158V50.816C199.147 51.1604 199.034 51.4938 198.833 51.774C198.616 52.09 198.308 52.3318 197.949 52.4667C197.541 52.6275 197.105 52.7076 196.667 52.7025C196.203 52.7172 195.742 52.6313 195.314 52.4507C194.887 52.27 194.503 51.9989 194.191 51.6561C193.542 50.9339 193.218 49.8875 193.218 48.5021C193.218 47.1019 193.542 46.0555 194.176 45.3333C194.81 44.6406 195.65 44.2869 196.652 44.2869C197.101 44.2779 197.546 44.3581 197.964 44.5227C198.33 44.6676 198.64 44.9258 198.848 45.2596C199.04 45.5324 199.147 45.8551 199.158 46.1881V46.2471H198.229V46.1881C198.223 45.991 198.156 45.8005 198.037 45.6428C197.912 45.4552 197.732 45.3111 197.522 45.2302C197.263 45.1296 196.988 45.0796 196.711 45.0828C196.345 45.063 195.981 45.1448 195.658 45.3191C195.336 45.4933 195.068 45.7533 194.883 46.0702C194.461 46.8142 194.257 47.6621 194.294 48.5168C194.294 49.519 194.486 50.3444 194.883 50.9781C195.074 51.2785 195.341 51.5228 195.657 51.6859C195.973 51.8491 196.326 51.9253 196.682 51.9066C197.242 51.9066 197.64 51.8182 197.861 51.5676C197.968 51.4731 198.054 51.3577 198.115 51.2284C198.176 51.0991 198.21 50.9588 198.214 50.816V50.757Z" fill="#2C292A"/>
<path d="M209.533 52.7039C209.069 52.7191 208.608 52.6289 208.184 52.44C207.76 52.251 207.385 51.9684 207.086 51.6133C206.413 50.7221 206.083 49.618 206.158 48.5035C206.158 47.1623 206.467 46.1159 207.086 45.3937C207.72 44.6568 208.531 44.3031 209.548 44.3031C210.007 44.2923 210.462 44.3848 210.88 44.5735C211.299 44.7623 211.669 45.0426 211.965 45.3937C212.641 46.2783 212.976 47.3772 212.908 48.4888C212.983 49.6103 212.648 50.7209 211.965 51.6133C211.668 51.9664 211.295 52.2479 210.874 52.4367C210.453 52.6255 209.994 52.7169 209.533 52.7039ZM209.533 51.908C210.24 51.908 210.8 51.6133 211.213 50.9795C211.651 50.2304 211.861 49.37 211.817 48.5035C211.817 47.4718 211.611 46.6465 211.213 46.0275C211.042 45.7348 210.797 45.4931 210.501 45.3272C210.206 45.1614 209.872 45.0775 209.533 45.0842C209.192 45.0764 208.855 45.1597 208.557 45.3255C208.259 45.4913 208.011 45.7336 207.838 46.0275C207.395 46.775 207.18 47.6355 207.219 48.5035C207.219 49.5352 207.425 50.3458 207.838 50.9795C208.013 51.2706 208.262 51.51 208.56 51.6731C208.858 51.8363 209.193 51.9174 209.533 51.908Z" fill="#2C292A"/>
<path d="M220.141 44.5387H221.172V49.6382C221.172 50.3751 221.246 50.8762 221.379 51.1268C221.539 51.3942 221.782 51.6014 222.072 51.7163C222.386 51.8513 222.724 51.9209 223.066 51.9209C223.408 51.9209 223.747 51.8513 224.061 51.7163C224.356 51.5689 224.562 51.3626 224.71 51.0825C224.842 50.7878 224.916 50.1982 224.916 49.2697V44.5387H225.859V49.5498C225.898 50.2061 225.782 50.8624 225.52 51.4657C225.309 51.8514 224.992 52.1685 224.607 52.3795C224.135 52.6124 223.614 52.7238 223.088 52.7038C222.561 52.7071 222.037 52.6173 221.541 52.4385C221.108 52.3002 220.734 52.0198 220.48 51.6426C220.203 51.0545 220.086 50.4038 220.141 49.7561V44.5387Z" fill="#2C292A"/>
<path d="M234.391 52.4658H233.359V44.5366H235.82C236.286 44.5058 236.752 44.5919 237.176 44.7872C237.486 44.9676 237.737 45.2337 237.898 45.5535C238.057 45.8535 238.147 46.1848 238.162 46.5237C238.177 46.8626 238.118 47.2007 237.987 47.5137C237.857 47.799 237.678 48.0586 237.456 48.2801C237.175 48.5552 236.839 48.7664 236.469 48.8991C236.607 48.9709 236.736 49.06 236.852 49.1644C237.089 49.4609 237.301 49.7764 237.486 50.1077L238.753 52.4658H237.574L236.454 50.373C236.191 49.8737 235.841 49.4246 235.422 49.0465H234.391V52.4658ZM234.391 48.2654H235.393C235.805 48.2654 236.13 48.1917 236.351 48.0738C236.585 47.9401 236.775 47.7401 236.896 47.499C237.024 47.2481 237.09 46.9701 237.088 46.6884C237.094 46.4586 237.043 46.2308 236.94 46.0252C236.834 45.8256 236.676 45.6578 236.483 45.5388C236.292 45.3914 235.953 45.3325 235.481 45.3325H234.391V48.2654Z" fill="#2C292A"/>
<path d="M245.633 50.6832H246.665V50.7274C246.665 51.1696 246.812 51.4791 247.137 51.6707C247.523 51.8517 247.949 51.9327 248.375 51.9065C248.817 51.9065 249.2 51.7739 249.495 51.5086C249.804 51.258 249.952 50.919 249.952 50.4769C249.957 50.3146 249.926 50.1531 249.86 50.0049C249.793 49.8567 249.694 49.7257 249.568 49.6221C249.204 49.3494 248.802 49.131 248.375 48.9736L247.962 48.7967C247.511 48.6356 247.084 48.4124 246.695 48.1335C246.437 47.9235 246.227 47.6626 246.075 47.3671C245.937 47.0774 245.866 46.7598 245.869 46.4386C245.869 45.8343 246.075 45.3332 246.518 44.9205C246.96 44.5079 247.594 44.3015 248.493 44.3015C249.333 44.3015 249.907 44.4489 250.246 44.7437C250.407 44.8792 250.535 45.0487 250.622 45.2399C250.708 45.4311 250.751 45.6392 250.748 45.8491V45.8933H249.716V45.8343C249.714 45.6931 249.662 45.5571 249.568 45.4511C249.444 45.3117 249.279 45.2139 249.097 45.1711C248.871 45.1098 248.638 45.08 248.404 45.0827C247.903 45.0827 247.52 45.2153 247.284 45.4806C247.167 45.5961 247.074 45.7338 247.011 45.8857C246.948 46.0375 246.915 46.2004 246.916 46.3649C246.931 46.5648 246.997 46.7576 247.107 46.925C247.215 47.136 247.371 47.3179 247.564 47.4555C247.897 47.6439 248.242 47.8113 248.596 47.9566L249.082 48.1335C249.684 48.3488 250.218 48.7201 250.63 49.2094C250.886 49.5603 251.026 49.9832 251.028 50.4179C251.021 50.8228 250.91 51.219 250.703 51.5675C250.499 51.9292 250.191 52.2216 249.819 52.4076C249.357 52.6179 248.853 52.7188 248.345 52.7024C247.84 52.7149 247.336 52.6401 246.857 52.4813C246.481 52.3625 246.159 52.1178 245.943 51.7886C245.738 51.4726 245.631 51.1038 245.633 50.7274V50.6832Z" fill="#2C292A"/>
<path d="M258.296 52.4658V44.5366H262.776V45.3914H259.328V47.8969H262.334V48.7075H259.328V51.5815H263.056V52.4658H258.296Z" fill="#2C292A"/>
<path d="M259.039 0.80885V2.9707H258.106V0.80885H257.152V0.0657129H259.989V0.80885H259.039Z" fill="#2C292A"/>
<path d="M262.843 2.9707V1.92356C262.843 1.6155 262.866 1.30786 262.911 1.00308H262.894L262.358 2.9707H261.627L261.087 1.0073H261.07C261.088 1.18062 261.107 1.35375 261.129 1.52665C261.141 1.66177 261.146 1.79266 261.146 1.92356V2.9707H260.289V0.0657129H261.606L262.045 1.74199H262.062L262.497 0.0657129H263.768V2.9707H262.843Z" fill="#2C292A"/>
</g>
<defs>
<clipPath id="clip0_4_5232">
<rect width="264" height="52.8" fill="white"/>
</clipPath>
</defs>
</svg>
